<svg width="24" height="24" viewBox="0 0 24 24" fill="none" xmlns="http://www.w3.org/2000/svg">
<path d="M2 7.48146V5.48146C2.72269 5.48146 3.44539 5.34481 4.12861 5.07152C5.97187 4.33421 8.02813 4.33421 9.87139 5.07152C11.2378 5.61809 12.7622 5.61809 14.1286 5.07152C15.9719 4.33421 18.0281 4.33421 19.8714 5.07152C20.5546 5.34481 21.2773 5.48146 22 5.48146V7.48146C21.0251 7.48146 20.0502 7.29713 19.1286 6.92847C17.7622 6.3819 16.2378 6.38189 14.8714 6.92847C13.0281 7.66578 10.9719 7.66578 9.12861 6.92847C7.76217 6.38189 6.23783 6.3819 4.87139 6.92847C3.94976 7.29713 2.97488 7.48146 2 7.48146Z" fill="url(#paint0_linear_375_179)"/>
<path d="M2 11.4815V9.48146C2.72269 9.48146 3.44539 9.34481 4.12861 9.07152C5.97187 8.33421 8.02813 8.33421 9.87139 9.07152C11.2378 9.61809 12.7622 9.61809 14.1286 9.07152C15.9719 8.33421 18.0281 8.33421 19.8714 9.07152C20.5546 9.34481 21.2773 9.48146 22 9.48146V11.4815C21.0251 11.4815 20.0502 11.2971 19.1286 10.9285C17.7622 10.3819 16.2378 10.3819 14.8714 10.9285C13.0281 11.6658 10.9719 11.6658 9.12861 10.9285C7.76217 10.3819 6.23783 10.3819 4.87139 10.9285C3.94976 11.2971 2.97488 11.4815 2 11.4815Z" fill="url(#paint1_linear_375_179)"/>
<path d="M2 15.4815V13.4815C2.72269 13.4815 3.44539 13.3448 4.12861 13.0715C5.97187 12.3342 8.02813 12.3342 9.87139 13.0715C11.2378 13.6181 12.7622 13.6181 14.1286 13.0715C15.9719 12.3342 18.0281 12.3342 19.8714 13.0715C20.5546 13.3448 21.2773 13.4815 22 13.4815V15.4815C21.0251 15.4815 20.0502 15.2971 19.1286 14.9285C17.7622 14.3819 16.2378 14.3819 14.8714 14.9285C13.0281 15.6658 10.9719 15.6658 9.12861 14.9285C7.76217 14.3819 6.23783 14.3819 4.87139 14.9285C3.94976 15.2971 2.97488 15.4815 2 15.4815Z" fill="url(#paint2_linear_375_179)"/>
<path d="M2 19.4815V17.4815C2.72269 17.4815 3.44539 17.3448 4.12861 17.0715C5.97187 16.3342 8.02813 16.3342 9.87139 17.0715C11.2378 17.6181 12.7622 17.6181 14.1286 17.0715C15.9719 16.3342 18.0281 16.3342 19.8714 17.0715C20.5546 17.3448 21.2773 17.4815 22 17.4815V19.4815C21.0251 19.4815 20.0502 19.2971 19.1286 18.9285C17.7622 18.3819 16.2378 18.3819 14.8714 18.9285C13.0281 19.6658 10.9719 19.6658 9.12861 18.9285C7.76217 18.3819 6.23783 18.3819 4.87139 18.9285C3.94976 19.2971 2.97488 19.4815 2 19.4815Z" fill="url(#paint3_linear_375_179)"/>
<defs>
<linearGradient id="paint0_linear_375_179" x1="12" y1="4.51854" x2="12" y2="19.4815" gradientUnits="userSpaceOnUse">
<stop stop-color="#FAFAFA"/>
<stop offset="1" stop-color="#E0E0E0"/>
</linearGradient>
<linearGradient id="paint1_linear_375_179" x1="12" y1="4.51854" x2="12" y2="19.4815" gradientUnits="userSpaceOnUse">
<stop stop-color="#FAFAFA"/>
<stop offset="1" stop-color="#E0E0E0"/>
</linearGradient>
<linearGradient id="paint2_linear_375_179" x1="12" y1="4.51854" x2="12" y2="19.4815" gradientUnits="userSpaceOnUse">
<stop stop-color="#FAFAFA"/>
<stop offset="1" stop-color="#E0E0E0"/>
</linearGradient>
<linearGradient id="paint3_linear_375_179" x1="12" y1="4.51854" x2="12" y2="19.4815" gradientUnits="userSpaceOnUse">
<stop stop-color="#FAFAFA"/>
<stop offset="1" stop-color="#E0E0E0"/>
</linearGradient>
</defs>
</svg>
