<svg width="24" height="24" viewBox="0 0 24 24" fill="none" xmlns="http://www.w3.org/2000/svg">
<path d="M8.5 7H17.5C19.9853 7 22 9.01472 22 11.5C22 13.9853 19.9853 16 17.5 16H8.5V7Z" fill="url(#paint0_linear_375_187)"/>
<circle cx="8.5" cy="9.5" r="6.5" fill="url(#paint1_linear_375_187)"/>
<mask id="mask0_375_187" style="mask-type:alpha" maskUnits="userSpaceOnUse" x="8" y="7" width="14" height="9">
<path fill-rule="evenodd" clip-rule="evenodd" d="M8.5 16C12.0899 16 15 13.0899 15 9.5C15 8.6141 14.8228 7.76959 14.5018 7H17.5C19.9853 7 22 9.01472 22 11.5C22 13.9853 19.9853 16 17.5 16H8.5Z" fill="url(#paint2_linear_375_187)"/>
</mask>
<g mask="url(#mask0_375_187)">
<g filter="url(#filter0_d_375_187)">
<circle cx="8.5" cy="9.5" r="6.5" fill="url(#paint3_linear_375_187)"/>
</g>
</g>
<path d="M10 18.5C10 19.3284 9.32843 20 8.5 20C7.67157 20 7 19.3284 7 18.5C7 17.6716 7.67157 17 8.5 17C9.32843 17 10 17.6716 10 18.5Z" fill="url(#paint4_linear_375_187)"/>
<path d="M13.5 21.5C13.5 22.3284 12.8284 23 12 23C11.1716 23 10.5 22.3284 10.5 21.5C10.5 20.6716 11.1716 20 12 20C12.8284 20 13.5 20.6716 13.5 21.5Z" fill="url(#paint5_linear_375_187)"/>
<path d="M17 18.5C17 19.3284 16.3284 20 15.5 20C14.6716 20 14 19.3284 14 18.5C14 17.6716 14.6716 17 15.5 17C16.3284 17 17 17.6716 17 18.5Z" fill="url(#paint6_linear_375_187)"/>
<defs>
<filter id="filter0_d_375_187" x="-1.5" y="0" width="21" height="21" filterUnits="userSpaceOnUse" color-interpolation-filters="sRGB">
<feFlood flood-opacity="0" result="BackgroundImageFix"/>
<feColorMatrix in="SourceAlpha" type="matrix" values="0 0 0 0 0 0 0 0 0 0 0 0 0 0 0 0 0 0 127 0" result="hardAlpha"/>
<feOffset dx="0.5" dy="1"/>
<feGaussianBlur stdDeviation="2"/>
<feComposite in2="hardAlpha" operator="out"/>
<feColorMatrix type="matrix" values="0 0 0 0 0 0 0 0 0 0 0 0 0 0 0 0 0 0 0.12 0"/>
<feBlend mode="multiply" in2="BackgroundImageFix" result="effect1_dropShadow_375_187"/>
<feBlend mode="normal" in="SourceGraphic" in2="effect1_dropShadow_375_187" result="shape"/>
</filter>
<linearGradient id="paint0_linear_375_187" x1="15.25" y1="7" x2="15.25" y2="16" gradientUnits="userSpaceOnUse">
<stop stop-color="#FAFAFA"/>
<stop offset="1" stop-color="#E0E0E0"/>
</linearGradient>
<linearGradient id="paint1_linear_375_187" x1="8.5" y1="3" x2="8.5" y2="16" gradientUnits="userSpaceOnUse">
<stop stop-color="#FAFAFA"/>
<stop offset="1" stop-color="#E0E0E0"/>
</linearGradient>
<linearGradient id="paint2_linear_375_187" x1="15.25" y1="7" x2="15.25" y2="16" gradientUnits="userSpaceOnUse">
<stop offset="0.5" stop-color="white"/>
<stop offset="0.751709" stop-color="white" stop-opacity="0"/>
</linearGradient>
<linearGradient id="paint3_linear_375_187" x1="8.5" y1="3" x2="8.5" y2="16" gradientUnits="userSpaceOnUse">
<stop stop-color="#FAFAFA"/>
<stop offset="1" stop-color="#E0E0E0"/>
</linearGradient>
<linearGradient id="paint4_linear_375_187" x1="8.5" y1="17" x2="8.5" y2="20" gradientUnits="userSpaceOnUse">
<stop stop-color="#CBDDFC"/>
<stop offset="1" stop-color="#91B3EB"/>
</linearGradient>
<linearGradient id="paint5_linear_375_187" x1="12" y1="20" x2="12" y2="23" gradientUnits="userSpaceOnUse">
<stop stop-color="#CBDDFC"/>
<stop offset="1" stop-color="#91B3EB"/>
</linearGradient>
<linearGradient id="paint6_linear_375_187" x1="15.5" y1="17" x2="15.5" y2="20" gradientUnits="userSpaceOnUse">
<stop stop-color="#CBDDFC"/>
<stop offset="1" stop-color="#91B3EB"/>
</linearGradient>
</defs>
</svg>
