<svg width="24" height="24" viewBox="0 0 24 24" fill="none" xmlns="http://www.w3.org/2000/svg">
<path d="M19.9775 8.4775C19.8203 8.49239 19.6611 8.5 19.5 8.5C16.7386 8.5 14.5 6.26143 14.5 3.5C14.5 3.33894 14.5076 3.17967 14.5225 3.02251C11.9851 3.26291 10 5.39963 10 8C10 10.7614 12.2386 13 15 13C17.6004 13 19.7371 11.0149 19.9775 8.4775Z" fill="url(#paint0_linear_375_159)"/>
<path d="M8.25 10H18C20.7614 10 23 12.2386 23 15C23 17.7614 20.7614 20 18 20H8.25V10Z" fill="url(#paint1_linear_375_159)"/>
<circle cx="8.25" cy="12.75" r="7.25" fill="url(#paint2_linear_375_159)"/>
<mask id="mask0_375_159" style="mask-type:alpha" maskUnits="userSpaceOnUse" x="8" y="10" width="15" height="10">
<path fill-rule="evenodd" clip-rule="evenodd" d="M8.25 20C12.2541 20 15.5 16.7541 15.5 12.75C15.5 11.7766 15.3082 10.848 14.9603 10H18C20.7614 10 23 12.2386 23 15C23 17.7614 20.7614 20 18 20H8.25Z" fill="url(#paint3_linear_375_159)"/>
</mask>
<g mask="url(#mask0_375_159)">
<g filter="url(#filter0_d_375_159)">
<circle cx="8.25" cy="12.75" r="7.25" fill="url(#paint4_linear_375_159)"/>
</g>
</g>
<defs>
<filter id="filter0_d_375_159" x="-2" y="2.5" width="22.5" height="22.5" filterUnits="userSpaceOnUse" color-interpolation-filters="sRGB">
<feFlood flood-opacity="0" result="BackgroundImageFix"/>
<feColorMatrix in="SourceAlpha" type="matrix" values="0 0 0 0 0 0 0 0 0 0 0 0 0 0 0 0 0 0 127 0" result="hardAlpha"/>
<feOffset dx="1" dy="1"/>
<feGaussianBlur stdDeviation="2"/>
<feComposite in2="hardAlpha" operator="out"/>
<feColorMatrix type="matrix" values="0 0 0 0 0 0 0 0 0 0 0 0 0 0 0 0 0 0 0.12 0"/>
<feBlend mode="multiply" in2="BackgroundImageFix" result="effect1_dropShadow_375_159"/>
<feBlend mode="normal" in="SourceGraphic" in2="effect1_dropShadow_375_159" result="shape"/>
</filter>
<linearGradient id="paint0_linear_375_159" x1="14.9887" y1="3.02251" x2="14.9887" y2="13" gradientUnits="userSpaceOnUse">
<stop stop-color="#CBDDFC"/>
<stop offset="1" stop-color="#91B3EB"/>
</linearGradient>
<linearGradient id="paint1_linear_375_159" x1="15.625" y1="10" x2="15.625" y2="20" gradientUnits="userSpaceOnUse">
<stop stop-color="#FAFAFA"/>
<stop offset="1" stop-color="#E0E0E0"/>
</linearGradient>
<linearGradient id="paint2_linear_375_159" x1="8.25" y1="5.5" x2="8.25" y2="20" gradientUnits="userSpaceOnUse">
<stop stop-color="#FAFAFA"/>
<stop offset="1" stop-color="#E0E0E0"/>
</linearGradient>
<linearGradient id="paint3_linear_375_159" x1="15.625" y1="10" x2="15.625" y2="20" gradientUnits="userSpaceOnUse">
<stop offset="0.5" stop-color="white"/>
<stop offset="0.751709" stop-color="white" stop-opacity="0"/>
</linearGradient>
<linearGradient id="paint4_linear_375_159" x1="8.25" y1="5.5" x2="8.25" y2="20" gradientUnits="userSpaceOnUse">
<stop stop-color="#FAFAFA"/>
<stop offset="1" stop-color="#E0E0E0"/>
</linearGradient>
</defs>
</svg>
