<svg width="24" height="24" viewBox="0 0 24 24" fill="none" xmlns="http://www.w3.org/2000/svg">
<path d="M12 22C17.5228 22 22 17.5228 22 12C22 6.47715 17.5228 2 12 2C6.47715 2 2 6.47715 2 12C2 17.5228 6.47715 22 12 22Z" fill="url(#paint0_linear_375_165)"/>
<path d="M12 15H18.5C20.433 15 22 16.567 22 18.5C22 20.433 20.433 22 18.5 22H12V15Z" fill="url(#paint1_linear_375_165)"/>
<circle cx="12" cy="17" r="5" fill="url(#paint2_linear_375_165)"/>
<mask id="mask0_375_165" style="mask-type:alpha" maskUnits="userSpaceOnUse" x="12" y="15" width="10" height="7">
<path fill-rule="evenodd" clip-rule="evenodd" d="M12 22C14.7614 22 17 19.7614 17 17C17 16.2889 16.8516 15.6125 16.584 15L18.5 15C20.433 15 22 16.567 22 18.5C22 20.433 20.433 22 18.5 22H12Z" fill="url(#paint3_linear_375_165)"/>
</mask>
<g mask="url(#mask0_375_165)">
<g filter="url(#filter0_d_375_165)">
<circle cx="12" cy="17" r="5" fill="url(#paint4_linear_375_165)"/>
</g>
</g>
<defs>
<filter id="filter0_d_375_165" x="3.5" y="9" width="18" height="18" filterUnits="userSpaceOnUse" color-interpolation-filters="sRGB">
<feFlood flood-opacity="0" result="BackgroundImageFix"/>
<feColorMatrix in="SourceAlpha" type="matrix" values="0 0 0 0 0 0 0 0 0 0 0 0 0 0 0 0 0 0 127 0" result="hardAlpha"/>
<feOffset dx="0.5" dy="1"/>
<feGaussianBlur stdDeviation="2"/>
<feComposite in2="hardAlpha" operator="out"/>
<feColorMatrix type="matrix" values="0 0 0 0 0 0 0 0 0 0 0 0 0 0 0 0 0 0 0.12 0"/>
<feBlend mode="multiply" in2="BackgroundImageFix" result="effect1_dropShadow_375_165"/>
<feBlend mode="normal" in="SourceGraphic" in2="effect1_dropShadow_375_165" result="shape"/>
</filter>
<linearGradient id="paint0_linear_375_165" x1="12" y1="2" x2="12" y2="22" gradientUnits="userSpaceOnUse">
<stop stop-color="#FDC33B"/>
<stop offset="1" stop-color="#FCB13A"/>
</linearGradient>
<linearGradient id="paint1_linear_375_165" x1="17" y1="15" x2="17" y2="22" gradientUnits="userSpaceOnUse">
<stop stop-color="#FAFAFA"/>
<stop offset="1" stop-color="#E0E0E0"/>
</linearGradient>
<linearGradient id="paint2_linear_375_165" x1="12" y1="12" x2="12" y2="22" gradientUnits="userSpaceOnUse">
<stop stop-color="#FAFAFA"/>
<stop offset="1" stop-color="#E0E0E0"/>
</linearGradient>
<linearGradient id="paint3_linear_375_165" x1="17" y1="15" x2="17" y2="22" gradientUnits="userSpaceOnUse">
<stop offset="0.5" stop-color="white"/>
<stop offset="0.751709" stop-color="white" stop-opacity="0"/>
</linearGradient>
<linearGradient id="paint4_linear_375_165" x1="12" y1="12" x2="12" y2="22" gradientUnits="userSpaceOnUse">
<stop stop-color="#FAFAFA"/>
<stop offset="1" stop-color="#E0E0E0"/>
</linearGradient>
</defs>
</svg>
