<svg width="24" height="24" viewBox="0 0 24 24" fill="none" xmlns="http://www.w3.org/2000/svg">
<g clip-path="url(#clip0_375_227)">
<path d="M18.9797 5.92976C18.8383 5.94316 18.695 5.95001 18.55 5.95001C16.0647 5.95001 14.05 3.93529 14.05 1.45001C14.05 1.30506 14.0569 1.16171 14.0703 1.02026C11.7866 1.23662 10 3.15968 10 5.50001C10 7.98529 12.0147 10 14.5 10C16.8403 10 18.7634 8.21345 18.9797 5.92976Z" fill="url(#paint0_linear_375_227)"/>
<path d="M8.5 7H17.5C19.9853 7 22 9.01472 22 11.5C22 13.9853 19.9853 16 17.5 16H8.5V7Z" fill="url(#paint1_linear_375_227)"/>
<circle cx="8.5" cy="9.5" r="6.5" fill="url(#paint2_linear_375_227)"/>
<mask id="mask0_375_227" style="mask-type:alpha" maskUnits="userSpaceOnUse" x="8" y="7" width="14" height="9">
<path fill-rule="evenodd" clip-rule="evenodd" d="M8.5 16C12.0899 16 15 13.0899 15 9.5C15 8.6141 14.8228 7.76959 14.5018 7H17.5C19.9853 7 22 9.01472 22 11.5C22 13.9853 19.9853 16 17.5 16H8.5Z" fill="url(#paint3_linear_375_227)"/>
</mask>
<g mask="url(#mask0_375_227)">
<g filter="url(#filter0_d_375_227)">
<circle cx="8.5" cy="9.5" r="6.5" fill="url(#paint4_linear_375_227)"/>
</g>
</g>
<path d="M10 18.5C10 19.3284 9.32843 20 8.5 20C7.67157 20 7 19.3284 7 18.5C7 17.6716 7.67157 17 8.5 17C9.32843 17 10 17.6716 10 18.5Z" fill="url(#paint5_linear_375_227)"/>
<path d="M13.5 21.5C13.5 22.3284 12.8284 23 12 23C11.1716 23 10.5 22.3284 10.5 21.5C10.5 20.6716 11.1716 20 12 20C12.8284 20 13.5 20.6716 13.5 21.5Z" fill="url(#paint6_linear_375_227)"/>
<g clip-path="url(#clip1_375_227)">
<path d="M15.5144 17C15.7292 17 15.9033 17.1741 15.9033 17.3889V18.0764L16.4988 17.7327C16.6848 17.6253 16.9226 17.689 17.03 17.875C17.1374 18.061 17.0736 18.2988 16.8876 18.4062L16.2922 18.75L16.8876 19.0938C17.0736 19.2012 17.1374 19.439 17.03 19.625C16.9226 19.811 16.6848 19.8747 16.4988 19.7673L15.9033 19.4236V20.1111C15.9033 20.3259 15.7292 20.5 15.5144 20.5C15.2997 20.5 15.1256 20.3259 15.1256 20.1111V19.4236L14.5301 19.7673C14.3441 19.8747 14.1063 19.811 13.9989 19.625C13.8915 19.439 13.9552 19.2012 14.1412 19.0938L14.7367 18.75L14.1412 18.4062C13.9552 18.2988 13.8915 18.061 13.9989 17.875C14.1063 17.689 14.3441 17.6253 14.5301 17.7327L15.1256 18.0764V17.3889C15.1256 17.1741 15.2997 17 15.5144 17Z" fill="url(#paint7_linear_375_227)"/>
</g>
</g>
<defs>
<filter id="filter0_d_375_227" x="-1.5" y="0" width="21" height="21" filterUnits="userSpaceOnUse" color-interpolation-filters="sRGB">
<feFlood flood-opacity="0" result="BackgroundImageFix"/>
<feColorMatrix in="SourceAlpha" type="matrix" values="0 0 0 0 0 0 0 0 0 0 0 0 0 0 0 0 0 0 127 0" result="hardAlpha"/>
<feOffset dx="0.5" dy="1"/>
<feGaussianBlur stdDeviation="2"/>
<feComposite in2="hardAlpha" operator="out"/>
<feColorMatrix type="matrix" values="0 0 0 0 0 0 0 0 0 0 0 0 0 0 0 0 0 0 0.12 0"/>
<feBlend mode="multiply" in2="BackgroundImageFix" result="effect1_dropShadow_375_227"/>
<feBlend mode="normal" in="SourceGraphic" in2="effect1_dropShadow_375_227" result="shape"/>
</filter>
<linearGradient id="paint0_linear_375_227" x1="14.4899" y1="1.02026" x2="14.4899" y2="10" gradientUnits="userSpaceOnUse">
<stop stop-color="#CBDDFC"/>
<stop offset="1" stop-color="#91B3EB"/>
</linearGradient>
<linearGradient id="paint1_linear_375_227" x1="15.25" y1="7" x2="15.25" y2="16" gradientUnits="userSpaceOnUse">
<stop stop-color="#FAFAFA"/>
<stop offset="1" stop-color="#E0E0E0"/>
</linearGradient>
<linearGradient id="paint2_linear_375_227" x1="8.5" y1="3" x2="8.5" y2="16" gradientUnits="userSpaceOnUse">
<stop stop-color="#FAFAFA"/>
<stop offset="1" stop-color="#E0E0E0"/>
</linearGradient>
<linearGradient id="paint3_linear_375_227" x1="15.25" y1="7" x2="15.25" y2="16" gradientUnits="userSpaceOnUse">
<stop offset="0.5" stop-color="white"/>
<stop offset="0.751709" stop-color="white" stop-opacity="0"/>
</linearGradient>
<linearGradient id="paint4_linear_375_227" x1="8.5" y1="3" x2="8.5" y2="16" gradientUnits="userSpaceOnUse">
<stop stop-color="#FAFAFA"/>
<stop offset="1" stop-color="#E0E0E0"/>
</linearGradient>
<linearGradient id="paint5_linear_375_227" x1="8.5" y1="17" x2="8.5" y2="20" gradientUnits="userSpaceOnUse">
<stop stop-color="#CBDDFC"/>
<stop offset="1" stop-color="#91B3EB"/>
</linearGradient>
<linearGradient id="paint6_linear_375_227" x1="12" y1="20" x2="12" y2="23" gradientUnits="userSpaceOnUse">
<stop stop-color="#CBDDFC"/>
<stop offset="1" stop-color="#91B3EB"/>
</linearGradient>
<linearGradient id="paint7_linear_375_227" x1="15.5144" y1="17" x2="15.5144" y2="20.5" gradientUnits="userSpaceOnUse">
<stop stop-color="#FAFAFA"/>
<stop offset="1" stop-color="#E0E0E0"/>
</linearGradient>
<clipPath id="clip0_375_227">
<rect width="24" height="24" fill="white"/>
</clipPath>
<clipPath id="clip1_375_227">
<rect width="3.88889" height="3.5" fill="white" transform="translate(13.57 17)"/>
</clipPath>
</defs>
</svg>
