<svg width="24" height="24" viewBox="0 0 24 24" fill="none" xmlns="http://www.w3.org/2000/svg">
<mask id="mask0_375_277" style="mask-type:alpha" maskUnits="userSpaceOnUse" x="1" y="3" width="22" height="18">
<path fill-rule="evenodd" clip-rule="evenodd" d="M20.4522 12.5201C22.043 11.5663 23 10.339 23 9C23 5.96243 18.0751 3.5 12 3.5C5.92487 3.5 1 5.96243 1 9C1 10.339 1.95704 11.5663 3.54776 12.5201C3.51619 12.6778 3.5 12.8379 3.5 13C3.5 14.2532 4.46769 15.3868 6.02908 16.2028C6.00985 16.3005 6 16.3997 6 16.5C6 17.396 6.78551 18.2002 8.03098 18.7499C8.01054 18.8318 8 18.9153 8 19C8 20.1046 9.79086 21 12 21C14.2091 21 16 20.1046 16 19C16 18.9153 15.9895 18.8318 15.969 18.7499C17.2145 18.2002 18 17.396 18 16.5C18 16.3997 17.9902 16.3005 17.9709 16.2028C19.5323 15.3868 20.5 14.2532 20.5 13C20.5 12.8379 20.4838 12.6778 20.4522 12.5201Z" fill="url(#paint0_linear_375_277)"/>
</mask>
<g mask="url(#mask0_375_277)">
<g filter="url(#filter0_d_375_277)">
<ellipse cx="12" cy="19" rx="4" ry="2" fill="url(#paint1_linear_375_277)"/>
</g>
<g filter="url(#filter1_d_375_277)">
<ellipse cx="12" cy="16.5" rx="6" ry="3" fill="url(#paint2_linear_375_277)"/>
</g>
<g filter="url(#filter2_d_375_277)">
<ellipse cx="12" cy="13" rx="8.5" ry="4.5" fill="url(#paint3_linear_375_277)"/>
</g>
<g filter="url(#filter3_d_375_277)">
<ellipse cx="12" cy="9" rx="11" ry="5.5" fill="url(#paint4_linear_375_277)"/>
</g>
</g>
<defs>
<filter id="filter0_d_375_277" x="7" y="16.25" width="10" height="6" filterUnits="userSpaceOnUse" color-interpolation-filters="sRGB">
<feFlood flood-opacity="0" result="BackgroundImageFix"/>
<feColorMatrix in="SourceAlpha" type="matrix" values="0 0 0 0 0 0 0 0 0 0 0 0 0 0 0 0 0 0 127 0" result="hardAlpha"/>
<feOffset dy="0.25"/>
<feGaussianBlur stdDeviation="0.5"/>
<feComposite in2="hardAlpha" operator="out"/>
<feColorMatrix type="matrix" values="0 0 0 0 0 0 0 0 0 0 0 0 0 0 0 0 0 0 0.12 0"/>
<feBlend mode="multiply" in2="BackgroundImageFix" result="effect1_dropShadow_375_277"/>
<feBlend mode="normal" in="SourceGraphic" in2="effect1_dropShadow_375_277" result="shape"/>
</filter>
<filter id="filter1_d_375_277" x="5" y="12.75" width="14" height="8" filterUnits="userSpaceOnUse" color-interpolation-filters="sRGB">
<feFlood flood-opacity="0" result="BackgroundImageFix"/>
<feColorMatrix in="SourceAlpha" type="matrix" values="0 0 0 0 0 0 0 0 0 0 0 0 0 0 0 0 0 0 127 0" result="hardAlpha"/>
<feOffset dy="0.25"/>
<feGaussianBlur stdDeviation="0.5"/>
<feComposite in2="hardAlpha" operator="out"/>
<feColorMatrix type="matrix" values="0 0 0 0 0 0 0 0 0 0 0 0 0 0 0 0 0 0 0.12 0"/>
<feBlend mode="multiply" in2="BackgroundImageFix" result="effect1_dropShadow_375_277"/>
<feBlend mode="normal" in="SourceGraphic" in2="effect1_dropShadow_375_277" result="shape"/>
</filter>
<filter id="filter2_d_375_277" x="2.5" y="7.75" width="19" height="11" filterUnits="userSpaceOnUse" color-interpolation-filters="sRGB">
<feFlood flood-opacity="0" result="BackgroundImageFix"/>
<feColorMatrix in="SourceAlpha" type="matrix" values="0 0 0 0 0 0 0 0 0 0 0 0 0 0 0 0 0 0 127 0" result="hardAlpha"/>
<feOffset dy="0.25"/>
<feGaussianBlur stdDeviation="0.5"/>
<feComposite in2="hardAlpha" operator="out"/>
<feColorMatrix type="matrix" values="0 0 0 0 0 0 0 0 0 0 0 0 0 0 0 0 0 0 0.12 0"/>
<feBlend mode="multiply" in2="BackgroundImageFix" result="effect1_dropShadow_375_277"/>
<feBlend mode="normal" in="SourceGraphic" in2="effect1_dropShadow_375_277" result="shape"/>
</filter>
<filter id="filter3_d_375_277" x="0" y="2.75" width="24" height="13" filterUnits="userSpaceOnUse" color-interpolation-filters="sRGB">
<feFlood flood-opacity="0" result="BackgroundImageFix"/>
<feColorMatrix in="SourceAlpha" type="matrix" values="0 0 0 0 0 0 0 0 0 0 0 0 0 0 0 0 0 0 127 0" result="hardAlpha"/>
<feOffset dy="0.25"/>
<feGaussianBlur stdDeviation="0.5"/>
<feComposite in2="hardAlpha" operator="out"/>
<feColorMatrix type="matrix" values="0 0 0 0 0 0 0 0 0 0 0 0 0 0 0 0 0 0 0.12 0"/>
<feBlend mode="multiply" in2="BackgroundImageFix" result="effect1_dropShadow_375_277"/>
<feBlend mode="normal" in="SourceGraphic" in2="effect1_dropShadow_375_277" result="shape"/>
</filter>
<linearGradient id="paint0_linear_375_277" x1="12" y1="3.5" x2="12" y2="21" gradientUnits="userSpaceOnUse">
<stop stop-color="#FAFAFA"/>
<stop offset="1" stop-color="#E0E0E0"/>
</linearGradient>
<linearGradient id="paint1_linear_375_277" x1="12" y1="17" x2="12" y2="21" gradientUnits="userSpaceOnUse">
<stop stop-color="#FAFAFA"/>
<stop offset="1" stop-color="#E0E0E0"/>
</linearGradient>
<linearGradient id="paint2_linear_375_277" x1="12" y1="13.5" x2="12" y2="19.5" gradientUnits="userSpaceOnUse">
<stop stop-color="#FAFAFA"/>
<stop offset="1" stop-color="#E0E0E0"/>
</linearGradient>
<linearGradient id="paint3_linear_375_277" x1="12" y1="8.5" x2="12" y2="17.5" gradientUnits="userSpaceOnUse">
<stop stop-color="#FAFAFA"/>
<stop offset="1" stop-color="#E0E0E0"/>
</linearGradient>
<linearGradient id="paint4_linear_375_277" x1="12" y1="3.5" x2="12" y2="14.5" gradientUnits="userSpaceOnUse">
<stop stop-color="#FAFAFA"/>
<stop offset="1" stop-color="#E0E0E0"/>
</linearGradient>
</defs>
</svg>
