<svg width="24" height="24" viewBox="0 0 24 24" fill="none" xmlns="http://www.w3.org/2000/svg">
<g clip-path="url(#clip0_375_256)">
<path d="M14.5 10C16.9853 10 19 7.98528 19 5.5C19 3.01472 16.9853 1 14.5 1C12.0147 1 10 3.01472 10 5.5C10 7.98528 12.0147 10 14.5 10Z" fill="url(#paint0_linear_375_256)"/>
<path d="M8.5 7H17.5C19.9853 7 22 9.01472 22 11.5C22 13.9853 19.9853 16 17.5 16H8.5V7Z" fill="url(#paint1_linear_375_256)"/>
<circle cx="8.5" cy="9.5" r="6.5" fill="url(#paint2_linear_375_256)"/>
<mask id="mask0_375_256" style="mask-type:alpha" maskUnits="userSpaceOnUse" x="8" y="7" width="14" height="9">
<path fill-rule="evenodd" clip-rule="evenodd" d="M8.5 16C12.0899 16 15 13.0899 15 9.5C15 8.6141 14.8228 7.76959 14.5018 7H17.5C19.9853 7 22 9.01472 22 11.5C22 13.9853 19.9853 16 17.5 16H8.5Z" fill="url(#paint3_linear_375_256)"/>
</mask>
<g mask="url(#mask0_375_256)">
<g filter="url(#filter0_d_375_256)">
<circle cx="8.5" cy="9.5" r="6.5" fill="url(#paint4_linear_375_256)"/>
</g>
</g>
<path d="M9.5 17L7.5 20H9L7 23L12.5 18.5H10.5L11.5 17H9.5Z" fill="url(#paint5_linear_375_256)"/>
<path d="M17 18.5C17 19.3333 16.3333 20 15.5 20C14.6667 20 14 19.3333 14 18.5C14 17.5 15.5 16.5 15.5 16.5C15.5 16.5 17 17.5 17 18.5Z" fill="url(#paint6_linear_375_256)"/>
</g>
<defs>
<filter id="filter0_d_375_256" x="-1.5" y="0" width="21" height="21" filterUnits="userSpaceOnUse" color-interpolation-filters="sRGB">
<feFlood flood-opacity="0" result="BackgroundImageFix"/>
<feColorMatrix in="SourceAlpha" type="matrix" values="0 0 0 0 0 0 0 0 0 0 0 0 0 0 0 0 0 0 127 0" result="hardAlpha"/>
<feOffset dx="0.5" dy="1"/>
<feGaussianBlur stdDeviation="2"/>
<feComposite in2="hardAlpha" operator="out"/>
<feColorMatrix type="matrix" values="0 0 0 0 0 0 0 0 0 0 0 0 0 0 0 0 0 0 0.12 0"/>
<feBlend mode="multiply" in2="BackgroundImageFix" result="effect1_dropShadow_375_256"/>
<feBlend mode="normal" in="SourceGraphic" in2="effect1_dropShadow_375_256" result="shape"/>
</filter>
<linearGradient id="paint0_linear_375_256" x1="14.5" y1="1" x2="14.5" y2="10" gradientUnits="userSpaceOnUse">
<stop stop-color="#FDC33B"/>
<stop offset="1" stop-color="#FCB13A"/>
</linearGradient>
<linearGradient id="paint1_linear_375_256" x1="15.25" y1="7" x2="15.25" y2="16" gradientUnits="userSpaceOnUse">
<stop stop-color="#FAFAFA"/>
<stop offset="1" stop-color="#E0E0E0"/>
</linearGradient>
<linearGradient id="paint2_linear_375_256" x1="8.5" y1="3" x2="8.5" y2="16" gradientUnits="userSpaceOnUse">
<stop stop-color="#FAFAFA"/>
<stop offset="1" stop-color="#E0E0E0"/>
</linearGradient>
<linearGradient id="paint3_linear_375_256" x1="15.25" y1="7" x2="15.25" y2="16" gradientUnits="userSpaceOnUse">
<stop offset="0.5" stop-color="white"/>
<stop offset="0.751709" stop-color="white" stop-opacity="0"/>
</linearGradient>
<linearGradient id="paint4_linear_375_256" x1="8.5" y1="3" x2="8.5" y2="16" gradientUnits="userSpaceOnUse">
<stop stop-color="#FAFAFA"/>
<stop offset="1" stop-color="#E0E0E0"/>
</linearGradient>
<linearGradient id="paint5_linear_375_256" x1="9.75" y1="17" x2="9.75" y2="23" gradientUnits="userSpaceOnUse">
<stop stop-color="#FDC33B"/>
<stop offset="1" stop-color="#FCB13A"/>
</linearGradient>
<linearGradient id="paint6_linear_375_256" x1="15.5" y1="16.5" x2="15.5" y2="20" gradientUnits="userSpaceOnUse">
<stop stop-color="#59BDFF"/>
<stop offset="1" stop-color="#0E9EFE"/>
</linearGradient>
<clipPath id="clip0_375_256">
<rect width="24" height="24" fill="white"/>
</clipPath>
</defs>
</svg>
