<svg width="24" height="24" viewBox="0 0 24 24" fill="none" xmlns="http://www.w3.org/2000/svg">
<path fill-rule="evenodd" clip-rule="evenodd" d="M2 12C2 6.48 6.48 2 12 2C17.52 2 22 6.48 22 12C22 17.52 17.52 22 12 22C6.48 22 2 17.52 2 12ZM13 17V19H11V17L13 17ZM14.17 12.17L15.07 11.25C15.64 10.68 16 9.88 16 9C16 6.79 14.21 5 12 5C9.79 5 8 6.79 8 9H10C10 7.9 10.9 7 12 7C13.1 7 14 7.9 14 9C14 9.55 13.78 10.05 13.41 10.41L12.17 11.67C11.45 12.4 11 13.4 11 14.5V15H13C13 13.5 13.45 12.9 14.17 12.17Z" fill="url(#paint0_linear_375_283)"/>
<defs>
<linearGradient id="paint0_linear_375_283" x1="12" y1="2" x2="12" y2="22" gradientUnits="userSpaceOnUse">
<stop stop-color="#FAFAFA"/>
<stop offset="1" stop-color="#E0E0E0"/>
</linearGradient>
</defs>
</svg>
