<svg width="24" height="24" viewBox="0 0 24 24" fill="none" xmlns="http://www.w3.org/2000/svg">
<path d="M11.6828 2.56725C11.0039 2.4322 10.3001 2.50152 9.66061 2.76642C9.02107 3.03133 8.47444 3.47993 8.08986 4.05551C7.70527 4.63108 7.5 5.30777 7.5 6V6.5H9.5V6C9.5 5.70333 9.58797 5.41332 9.7528 5.16665C9.91762 4.91997 10.1519 4.72771 10.426 4.61418C10.7001 4.50065 11.0017 4.47095 11.2926 4.52882C11.5836 4.5867 11.8509 4.72956 12.0607 4.93934C12.2704 5.14912 12.4133 5.41639 12.4712 5.70737C12.5291 5.99834 12.4994 6.29994 12.3858 6.57403C12.2723 6.84812 12.08 7.08238 11.8334 7.24721C11.5867 7.41203 11.2967 7.5 11 7.5L2 7.5V9.5L11 9.5C11.6922 9.5 12.3689 9.29473 12.9445 8.91015C13.5201 8.52556 13.9687 7.97894 14.2336 7.33939C14.4985 6.69985 14.5678 5.99612 14.4327 5.31719C14.2977 4.63825 13.9644 4.01461 13.4749 3.52513C12.9854 3.03564 12.3617 2.7023 11.6828 2.56725Z" fill="url(#paint0_linear_375_171)"/>
<path d="M19.1828 6.06725C18.5039 5.9322 17.8001 6.00152 17.1606 6.26642C16.5211 6.53133 15.9744 6.97993 15.5899 7.55551C15.2053 8.13108 15 8.80777 15 9.5V10H17V9.5C17 9.20333 17.088 8.91332 17.2528 8.66665C17.4176 8.41997 17.6519 8.22771 17.926 8.11418C18.2001 8.00065 18.5017 7.97095 18.7926 8.02882C19.0836 8.0867 19.3509 8.22956 19.5607 8.43934C19.7704 8.64912 19.9133 8.91639 19.9712 9.20737C20.0291 9.49834 19.9994 9.79994 19.8858 10.074C19.7723 10.3481 19.58 10.5824 19.3334 10.7472C19.0867 10.912 18.7967 11 18.5 11L2 11V13L18.5 13C19.1922 13 19.8689 12.7947 20.4445 12.4101C21.0201 12.0256 21.4687 11.4789 21.7336 10.8394C21.9985 10.1999 22.0678 9.49612 21.9327 8.81719C21.7977 8.13825 21.4644 7.51461 20.9749 7.02513C20.4854 6.53564 19.8617 6.2023 19.1828 6.06725Z" fill="url(#paint1_linear_375_171)"/>
<path d="M2 14.5H11C11.6922 14.5 12.3689 14.7053 12.9445 15.0899C13.5201 15.4744 13.9687 16.0211 14.2336 16.6606C14.4985 17.3001 14.5678 18.0039 14.4327 18.6828C14.2977 19.3617 13.9644 19.9854 13.4749 20.4749C12.9854 20.9644 12.3617 21.2977 11.6828 21.4327C11.0039 21.5678 10.3001 21.4985 9.66061 21.2336C9.02107 20.9687 8.47444 20.5201 8.08986 19.9445C7.70527 19.3689 7.5 18.6922 7.5 18V17.5H9.5V18C9.5 18.2967 9.58797 18.5867 9.7528 18.8334C9.91762 19.08 10.1519 19.2723 10.426 19.3858C10.7001 19.4994 11.0017 19.5291 11.2926 19.4712C11.5836 19.4133 11.8509 19.2704 12.0607 19.0607C12.2704 18.8509 12.4133 18.5836 12.4712 18.2926C12.5291 18.0017 12.4994 17.7001 12.3858 17.426C12.2723 17.1519 12.08 16.9176 11.8334 16.7528C11.5867 16.588 11.2967 16.5 11 16.5H2V14.5Z" fill="url(#paint2_linear_375_171)"/>
<defs>
<linearGradient id="paint0_linear_375_171" x1="12" y1="2.5" x2="12" y2="21.5" gradientUnits="userSpaceOnUse">
<stop stop-color="#FAFAFA"/>
<stop offset="1" stop-color="#E0E0E0"/>
</linearGradient>
<linearGradient id="paint1_linear_375_171" x1="12" y1="2.5" x2="12" y2="21.5" gradientUnits="userSpaceOnUse">
<stop stop-color="#FAFAFA"/>
<stop offset="1" stop-color="#E0E0E0"/>
</linearGradient>
<linearGradient id="paint2_linear_375_171" x1="12" y1="2.5" x2="12" y2="21.5" gradientUnits="userSpaceOnUse">
<stop stop-color="#FAFAFA"/>
<stop offset="1" stop-color="#E0E0E0"/>
</linearGradient>
</defs>
</svg>
